<?xml version="1.0"?><svg width="640" height="480" xmlns="http://www.w3.org/2000/svg">
 <title>wave pattern extended</title>
 <metadata id="metadata18081">image/svg+xmlPublic Domainclker.comMohamed Ibrahimmap symbolsmap symbols</metadata>
 <g>
  <title>Layer 1</title>
  <path fill="#2948cc" fill-rule="nonzero" id="path6712" d="m364.573334,272.536255c-12.670166,14.214691 -29.763153,19.78775 -48.720123,19.78775c-24.065582,0 -45.970642,-11.372162 -58.54422,-32.865662c-12.474258,21.948425 -34.47731,32.865662 -58.838028,32.865662c-24.064285,0 -45.772141,-11.599152 -58.345688,-33.093567c-12.474289,22.176331 -34.477318,33.093567 -59.131981,33.093567c-17.778774,0 -34.084805,-4.663208 -46.363655,-17.286163l-9.331535,-77.328842c12.770111,19.559647 33.004444,32.182114 55.69519,32.182114c24.654663,0 46.657692,-13.986862 59.131981,-36.161804c12.573547,21.49263 34.281403,36.161804 58.345688,36.161804c24.360718,0 46.36377,-13.986862 58.838028,-35.934341c12.573578,21.49263 34.478638,35.934341 58.54422,35.934341c24.55658,0 46.264496,-14.669174 58.640778,-36.844009l-9.920654,79.489151z"/>
  <ellipse fill="#0000ff" cx="257" cy="244" id="svg_3" ry="11"/>
  <ellipse fill="#0000ff" cx="258" cy="245" id="svg_4" ry="5"/>
  <path fill="#0f87ce" fill-rule="nonzero" d="m362.894684,285.150177c-12.552826,13.999603 -29.486298,19.488098 -48.267365,19.488098c-23.841736,0 -45.54184,-11.19989 -57.998413,-32.368988c-12.3582,21.617096 -34.156647,32.368988 -58.290329,32.368988c-23.840683,0 -45.347214,-11.423859 -57.802719,-32.592957c-12.359283,21.841064 -34.156654,32.592957 -58.582207,32.592957c-17.613487,0 -33.767448,-4.592651 -45.932091,-17.024414l-9.244598,-76.160675c12.651146,19.26413 32.697105,31.695892 55.176689,31.695892c24.425552,0 46.222923,-13.77562 58.582207,-35.615417c12.455505,21.167862 33.962036,35.615417 57.802719,35.615417c24.133682,0 45.932129,-13.77562 58.290329,-35.391479c12.456573,21.167938 34.156677,35.391479 57.998413,35.391479c24.328247,0 45.834808,-14.447556 58.095734,-36.287354l-9.828369,78.288452z" id="svg_2"/>
  <path fill="#00bbd1" fill-rule="nonzero" d="m361.00119,298.297089c-12.416718,13.355286 -29.166687,18.591217 -47.744171,18.591217c-23.583282,0 -45.048187,-10.684418 -57.36972,-30.879272c-12.224197,20.622192 -33.786362,30.879272 -57.658463,30.879272c-23.582245,0 -44.855621,-10.898132 -57.176147,-31.092926c-12.225311,20.835846 -33.786392,31.092926 -57.947136,31.092926c-17.422592,0 -33.401466,-4.381317 -45.434212,-16.240906l-9.144409,-72.655533c12.514061,18.377548 32.342712,30.237137 54.578621,30.237137c24.160744,0 45.721825,-13.141571 57.947136,-33.976273c12.320526,20.19368 33.593903,33.976273 57.176147,33.976273c23.872101,0 45.434265,-13.141571 57.658463,-33.76265c12.321533,20.19371 33.786438,33.76265 57.36972,33.76265c24.064575,0 45.337982,-13.782593 57.466034,-34.617294l-9.721863,74.685379z" id="svg_9"/>
  <path id="svg_12" fill="#2948cc" fill-rule="nonzero" d="m598.802246,271.568542c-12.670105,14.214691 -29.763123,19.78775 -48.720093,19.78775c-24.065552,0 -45.970612,-11.372162 -58.54422,-32.865662c-12.474243,21.948425 -34.477295,32.865662 -58.838013,32.865662c-24.06427,0 -45.772125,-11.599152 -58.345673,-33.093567c-12.474304,22.176331 -34.477356,33.093567 -59.131989,33.093567c-17.778778,0 -34.084808,-4.663208 -46.363647,-17.286163l-10.331543,-77.203827c12.770111,19.559631 34.004425,32.057098 56.69519,32.057098c24.654633,0 46.907684,-13.736847 59.381989,-35.911804c12.573547,21.49263 34.031403,35.911804 58.095673,35.911804c24.360718,0 46.36377,-13.986847 58.838013,-35.934326c12.573608,21.492615 34.478668,35.934326 58.54422,35.934326c24.55658,0 46.264526,-14.669174 58.640808,-36.843994l-9.920715,79.489136z"/>
  <path id="svg_13" fill="#0f87ce" fill-rule="nonzero" d="m596.573914,285.182465c-12.616272,13.999603 -29.635437,19.488098 -48.511536,19.488098c-23.962341,0 -45.772186,-11.19989 -58.291779,-32.368988c-12.420715,21.617096 -34.329437,32.368988 -58.585205,32.368988c-23.961273,0 -45.576599,-11.423859 -58.095123,-32.592957c-12.421814,21.841064 -34.329468,32.592957 -58.87854,32.592957c-17.702606,0 -33.938293,-4.592651 -46.164459,-17.024414l-9.291382,-76.160675c12.715118,19.26413 32.862518,31.695892 55.455841,31.695892c24.549072,0 46.456726,-13.775604 58.87854,-35.615417c12.518524,21.167877 34.13385,35.615417 58.095123,35.615417c24.255768,0 46.16449,-13.775604 58.585205,-35.391479c12.519592,21.167953 34.329437,35.391479 58.291779,35.391479c24.451355,0 46.06665,-14.44754 58.389648,-36.287338l-9.878113,78.288437z"/>
  <path id="svg_14" fill="#00bbd1" fill-rule="nonzero" d="m595.137817,298.579376c-12.534668,13.355286 -29.443665,18.591217 -48.197632,18.591217c-23.807251,0 -45.476013,-10.684418 -57.914581,-30.879272c-12.340302,20.622192 -34.107239,30.879272 -58.206085,30.879272c-23.806213,0 -45.281647,-10.898132 -57.719177,-31.092926c-12.341431,20.835846 -34.1073,31.092926 -58.497498,31.092926c-17.588043,0 -33.718689,-4.381317 -45.865723,-16.240906l-10.981262,-73.405518c12.632935,18.377533 34.399902,30.987122 56.846985,30.987122c24.390198,0 46.156067,-13.141571 58.497498,-33.976257c12.437531,20.193665 33.912964,33.976257 57.719177,33.976257c24.098846,0 45.865784,-13.141571 58.206085,-33.762634c12.438568,20.193695 34.10733,33.762634 57.914581,33.762634c24.293091,0 45.768616,-13.782593 58.011841,-34.617294l-9.814209,74.685379z"/>
 </g>
</svg>